<svg width="68" height="58" viewBox="0 0 68 58" fill="none" xmlns="http://www.w3.org/2000/svg">
<path d="M56.5083 16.4199V32.2992C56.5083 41.7959 51.0816 45.8657 42.9416 45.8657H15.8391C14.4516 45.8657 13.1258 45.7426 11.8924 45.4651C11.1216 45.3417 10.3816 45.1259 9.70331 44.8792C5.07831 43.1526 2.27246 39.1442 2.27246 32.2992V16.4199C2.27246 6.92328 7.69911 2.85339 15.8391 2.85339H42.9416C49.8483 2.85339 54.8125 5.78254 56.1383 12.4734C56.3541 13.7067 56.5083 14.9708 56.5083 16.4199Z" stroke="#2B3252" stroke-width="4" stroke-miterlimit="10" stroke-linecap="round" stroke-linejoin="round"/>
<path d="M65.7617 25.6703V41.5496C65.7617 51.0462 60.335 55.1161 52.195 55.1161H25.0925C22.8108 55.1161 20.745 54.808 18.9567 54.1296C15.2875 52.773 12.79 49.9671 11.8958 45.4655C13.1292 45.743 14.455 45.8661 15.8425 45.8661H42.945C51.085 45.8661 56.5117 41.7962 56.5117 32.2996V16.4203C56.5117 14.9712 56.3884 13.6763 56.1417 12.4738C62 13.7071 65.7617 17.8387 65.7617 25.6703Z" stroke="#2B3252" stroke-width="4" stroke-miterlimit="10" stroke-linecap="round" stroke-linejoin="round"/>
<path d="M29.3702 32.5147C33.8658 32.5147 37.5102 28.8703 37.5102 24.3747C37.5102 19.8791 33.8658 16.2346 29.3702 16.2346C24.8746 16.2346 21.2301 19.8791 21.2301 24.3747C21.2301 28.8703 24.8746 32.5147 29.3702 32.5147Z" stroke="#2B3252" stroke-width="4" stroke-miterlimit="10" stroke-linecap="round" stroke-linejoin="round"/>
<path d="M11.7383 17.5917V31.1584" stroke="#2B3252" stroke-width="4" stroke-miterlimit="10" stroke-linecap="round" stroke-linejoin="round"/>
<path d="M47.0169 17.5925V31.1593" stroke="#2B3252" stroke-width="4" stroke-miterlimit="10" stroke-linecap="round" stroke-linejoin="round"/>
</svg>
